<svg width="400" height="400" viewBox="0 0 400 400" fill="none" xmlns="http://www.w3.org/2000/svg">
<g clip-path="url(#clip0_201_2)">
<mask id="mask0_201_2" style="mask-type:luminance" maskUnits="userSpaceOnUse" x="0" y="0" width="400" height="400">
<path d="M400 0H0V400H400V0Z" fill="white"/>
</mask>
<g mask="url(#mask0_201_2)">
<path d="M400 0H0V400H400V0Z" fill="white"/>
<path fill-rule="evenodd" clip-rule="evenodd" d="M264.797 188.013L-45.4875 62L-186 407.987L95.3785 522.261L63 601.987L373.285 728L513.797 382.013L232.418 267.739L264.797 188.013Z" fill="#53C6E0"/>
<path d="M199.5 172C173.266 172 152 150.734 152 124.5C152 98.2665 173.266 77 199.5 77C218.1 77 234.204 87.6911 242 103.264" stroke="black" stroke-width="13" stroke-linecap="round"/>
<path d="M199.5 200.5C156.146 200.5 121 166.197 121 124.5C121 82.8025 156.146 49 199.5 49C237.146 49 268.603 74.4876 276.234 108.5" stroke="black" stroke-width="10" stroke-linecap="round"/>
<path d="M200.156 228.499C140.237 228.689 91.5149 182.022 91.3317 124.266C91.1485 66.5092 139.574 19.5342 199.492 19.3442C229.062 19.2504 255.906 30.5687 275.534 49C293.572 65.9383 305.517 88.8838 307.884 114.5" stroke="black" stroke-width="13" stroke-linecap="round"/>
<path d="M200.148 228.843C226.381 228.843 247.648 250.11 247.648 276.343C247.648 302.577 226.381 323.843 200.148 323.843C181.547 323.843 165.444 313.152 157.648 297.58" stroke="black" stroke-width="13" stroke-linecap="round"/>
<path d="M200.148 200.343C243.502 200.343 278.648 234.646 278.648 276.343C278.648 318.041 243.502 351.843 200.148 351.843C162.501 351.843 131.045 326.356 123.414 292.343" stroke="black" stroke-width="10" stroke-linecap="round"/>
<path d="M199.492 172.344C259.411 172.154 308.133 218.821 308.316 276.577C308.499 334.334 260.074 381.309 200.156 381.499C170.585 381.593 143.742 370.275 124.114 351.843C106.075 334.905 94.131 311.959 91.7637 286.343" stroke="black" stroke-width="13" stroke-linecap="round"/>
</g>
</g>
<defs>
<clipPath id="clip0_201_2">
<rect width="400" height="400" rx="200" fill="white"/>
</clipPath>
</defs>
</svg>
